# xmcd
#
# Track frame offsets:
#	150
#	17374
#	35382
#	52771
#	70089
#	87798
#	106140
#	121889
#	138634
#	152440
#	164706
#	181498
#	199133
#	219391
#	238992
#	254390
#	279111
#	290469
#	309678
#	326446
#
# Disc length: 4532 seconds
#
# Revision: 2
# Processed by: cddbd v1.5.2PL0 Copyright (c) Steve Scherf et al.
# Submitted via: audiograbber 1.83.01
#
DISCID=1411b214
DTITLE=Various Artist - Heartland
DYEAR=1900
DGENRE=Country
TTITLE0=Lee Kernaghan - High Country
TTITLE1=Beccy Cole - Poster Girl (Wrong Side Of The World)
TTITLE2=John Williamson - Cootamundra Wattle
TTITLE3=Sara Storer - Back Out Back
TTITLE4=James Blundell - Down On The Farm
TTITLE5=Luke O'Shea and Medicine Wheel - Ragged Bloody Heroes
TTITLE6=Tom Curtain - Chew Like Hell
TTITLE7=Adam Brand - New England Highway
TTITLE8=The Sunny Cowgirls - Rousy's Life
TTITLE9=Davidson Brothers - Raised On The Road
TTITLE10=Anne Kirkpatrick - When The Rain Tumbles Down In July
TTITLE11=Felicity Urquhart - The Flood
TTITLE12=Katie Brianna - Words I Cannot Say
TTITLE13=Brendon Walmsley - Bottle Tree Lane
TTITLE14=Bob Pigott - Back Verandah
TTITLE15=Paul Kelly And The Stormwater Boys - Rally Round The Drum
TTITLE16=Kane and Walmsley Featuring Melinda Schneider - Something In The Air The
TTITLE16=me (Fg Melinda Schneider)
TTITLE17=Travis Collins - I Am Australian
TTITLE18=Craig Stewart - The Spirit Of Australia
TTITLE19=The Bushwackers - Waltzing Matilda
EXTD=
EXTT0=
EXTT1=
EXTT2=
EXTT3=
EXTT4=
EXTT5=
EXTT6=
EXTT7=
EXTT8=
EXTT9=
EXTT10=
EXTT11=
EXTT12=
EXTT13=
EXTT14=
EXTT15=
EXTT16=
EXTT17=
EXTT18=
EXTT19=
PLAYORDER=
